<?xml version="1.0" standalone="no"?>
<!DOCTYPE svg PUBLIC "-//W3C//DTD SVG 20010904//EN"
 "http://www.w3.org/TR/2001/REC-SVG-20010904/DTD/svg10.dtd">
<svg version="1.0" xmlns="http://www.w3.org/2000/svg"
 width="174.000000pt" height="174.000000pt" viewBox="0 0 174.000000 174.000000"
 preserveAspectRatio="xMidYMid meet">
<metadata>
Created by potrace 1.11, written by Peter Selinger 2001-2013
</metadata>
<g transform="translate(0.000000,174.000000) scale(0.100000,-0.100000)"
fill="#000000" stroke="none">
<path d="M244 1329 c-48 -56 -98 -113 -111 -127 -13 -14 -22 -30 -20 -36 2 -6
53 -45 113 -88 60 -42 126 -89 147 -104 l38 -28 -3 -328 -3 -328 455 0 455 0
-3 328 -3 328 48 35 c60 43 178 123 221 150 17 12 32 25 32 29 0 5 -48 65
-106 134 -99 118 -132 144 -149 117 -3 -6 -57 -42 -120 -81 l-114 -71 -263 1
-263 1 -55 37 c-30 20 -57 39 -60 42 -14 14 -132 90 -139 90 -5 0 -48 -46 -97
-101z"/>
</g>
</svg>
